<?xml version="1.0" standalone="no"?>
<!DOCTYPE svg PUBLIC "-//W3C//DTD SVG 20010904//EN"
 "http://www.w3.org/TR/2001/REC-SVG-20010904/DTD/svg10.dtd">
<svg version="1.0" xmlns="http://www.w3.org/2000/svg"
 width="256.000000pt" height="256.000000pt" viewBox="0 0 256.000000 256.000000"
 preserveAspectRatio="xMidYMid meet">
<metadata>
Created by potrace 1.14, written by Peter Selinger 2001-2017
</metadata>
<g transform="translate(0.000000,256.000000) scale(0.100000,-0.100000)"
fill="#000000" stroke="none">
<path d="M716 1659 c-79 -12 -156 -48 -214 -103 -94 -88 -135 -201 -135 -371
0 -166 34 -265 124 -361 119 -125 346 -158 515 -74 77 38 127 97 164 194 8 23
5 27 -55 60 -35 20 -70 36 -78 36 -9 0 -21 -16 -27 -35 -29 -87 -104 -135
-210 -135 -108 0 -167 38 -212 135 -20 44 -23 65 -23 180 0 124 1 133 30 190
41 82 90 115 179 122 112 9 179 -23 232 -113 12 -18 14 -18 65 9 85 45 92 52
85 82 -10 41 -92 122 -151 150 -30 14 -84 29 -122 35 -77 11 -85 11 -167 -1z"/>
<path d="M1330 1185 l0 -465 90 0 90 0 0 323 c1 290 2 320 16 302 8 -11 99
-156 201 -322 l187 -303 98 0 98 0 0 465 0 465 -90 0 -90 0 0 -294 c0 -162 -4
-297 -8 -300 -4 -2 -91 129 -193 292 l-184 297 -108 3 -107 3 0 -466z"/>
</g>
</svg>
